<?xml version="1.0" encoding="UTF-8" standalone="no"?>
<!DOCTYPE svg PUBLIC "-//W3C//DTD SVG 1.1//EN" "http://www.w3.org/Graphics/SVG/1.1/DTD/svg11.dtd">
<svg width="100%" height="100%" viewBox="0 0 188 150" version="1.1" xmlns="http://www.w3.org/2000/svg" xmlns:xlink="http://www.w3.org/1999/xlink" xml:space="preserve" xmlns:serif="http://www.serif.com/" style="fill-rule:evenodd;clip-rule:evenodd;stroke-linejoin:round;stroke-miterlimit:2;">
    <g transform="matrix(1,0,0,1,-357.918109,-326.768978)">
        <g transform="matrix(1,0,0,1.018315,0,-5.984903)">
            <path d="M357.964,381.139C358.181,383.651 360.32,385.581 362.887,385.581C388.192,385.639 515.124,385.639 540.525,385.639C543.139,385.639 545.312,383.662 545.511,381.103C546.001,367.296 540.071,326.769 451.5,326.769C362.842,326.769 357.297,367.375 357.964,381.139Z" style="fill:rgb(55,41,90);"/>
        </g>
        <g transform="matrix(1,0,0,1.018315,0,-5.984903)">
            <path d="M424.66,415.573L366.106,415.573C363.344,415.573 361.106,413.375 361.106,410.663L361.106,400.456C361.106,397.744 363.344,395.546 366.106,395.546L391.928,395.546C392.611,395.649 393.268,395.892 393.856,396.26L424.66,415.573ZM466.441,395.546L537.305,395.546C540.067,395.546 542.305,397.744 542.305,400.456L542.305,410.663C542.305,413.375 540.067,415.573 537.305,415.573L447.426,415.573L463.403,397.209C464.186,396.309 465.267,395.724 466.441,395.546Z" style="fill:rgb(55,41,90);"/>
        </g>
        <path d="M540.204,435.712C540.205,435.712 540.207,435.712 540.208,435.713C540.304,435.719 540.031,435.179 540.139,435.177C540.14,435.177 540.14,435.177 540.14,435.178C540.152,435.196 540.534,435.743 540.534,435.743C541.892,435.743 543.127,435.76 544.069,436.737C545.012,437.715 545.516,439.033 545.466,440.39C544.93,451.532 541.061,476.769 516.751,476.769C485.554,476.769 417.187,476.492 387.859,476.411C365.298,476.348 359.73,451.999 358.361,440.766C358.202,439.354 358.652,437.942 359.599,436.883C360.546,435.824 361.899,435.218 363.319,435.218L363.848,435.218C364.379,435.218 364.866,434.938 365.135,434.488C365.702,434.465 366.263,434.296 366.761,433.98L373.72,429.573C374.917,428.815 376.379,428.601 377.743,428.982C379.107,429.364 380.245,430.306 380.875,431.575L382.9,435.657C383.714,437.299 385.361,438.363 387.192,438.432L388.379,438.476C389.882,438.533 391.33,437.909 392.323,436.779L399.497,428.611C400.411,427.57 401.716,426.955 403.101,426.913C404.487,426.871 405.827,427.405 406.803,428.389L415.746,437.403C416.678,438.343 417.946,438.875 419.27,438.882L424.123,438.907C425.748,438.915 427.275,438.134 428.219,436.812L432.561,430.729C433.417,429.528 434.76,428.767 436.23,428.649C437.7,428.531 439.147,429.068 440.184,430.117L446.444,436.443C447.383,437.392 448.663,437.926 449.998,437.926L452.478,437.926C453.856,437.926 455.173,437.357 456.118,436.355L461.985,430.127C462.984,429.066 464.396,428.494 465.852,428.561C467.308,428.627 468.662,429.326 469.561,430.473L475.125,437.58C476.06,438.774 477.486,439.479 479.003,439.497L482.92,439.543C484.201,439.558 485.438,439.081 486.378,438.211L496.176,429.131C497.151,428.228 498.445,427.75 499.772,427.802C501.1,427.855 502.352,428.434 503.252,429.411L510.919,437.734C511.882,438.779 513.244,439.365 514.664,439.345L515.303,439.337C517.114,439.312 518.769,438.311 519.632,436.72L522.108,432.151C522.754,430.958 523.858,430.079 525.165,429.716C526.472,429.353 527.871,429.536 529.04,430.225L537.235,435.049C538.13,435.577 539.876,435.75 540.204,435.712Z" style="fill:rgb(55,41,90);"/>
    </g>
</svg>
