<?xml version="1.0" encoding="UTF-8" standalone="no"?><!DOCTYPE svg PUBLIC "-//W3C//DTD SVG 1.1//EN" "http://www.w3.org/Graphics/SVG/1.1/DTD/svg11.dtd"><svg width="100%" height="100%" viewBox="0 0 74 99" version="1.1" xmlns="http://www.w3.org/2000/svg" xmlns:xlink="http://www.w3.org/1999/xlink" xml:space="preserve" xmlns:serif="http://www.serif.com/" style="fill-rule:evenodd;clip-rule:evenodd;stroke-linejoin:round;stroke-miterlimit:2;"><path d="M0.026,34.236c1.089,-16.331 18.846,-35.516 39.052,-34.168c20.206,1.348 35.516,18.846 34.168,39.052c-1.348,20.206 -40.704,58.934 -40.704,58.934c0,0 -33.606,-47.487 -32.517,-63.817Zm36.639,-13.511c-7.594,0 -13.76,6.341 -13.76,14.151c0,7.81 6.166,14.151 13.76,14.151c7.594,0 13.76,-6.341 13.76,-14.151c0,-7.81 -6.166,-14.151 -13.76,-14.151Z" style="fill:#f6523e;"/><path d="M0.026,34.236c1.089,-16.331 18.846,-35.516 39.052,-34.168c20.206,1.348 35.516,18.846 34.168,39.052c-1.348,20.206 -40.704,58.934 -40.704,58.934c0,0 -33.606,-47.487 -32.517,-63.817Zm36.639,-13.511c-7.594,0 -13.76,6.341 -13.76,14.151c-0,7.81 6.166,14.151 13.76,14.151c7.594,0 13.76,-6.341 13.76,-14.151c-0,-7.81 -6.166,-14.151 -13.76,-14.151Z" style="fill:#f6523e;"/></svg>